<svg id="visual" viewBox="0 0 900 600" width="900" height="600" xmlns="http://www.w3.org/2000/svg" xmlns:xlink="http://www.w3.org/1999/xlink" version="1.1"><path d="M0 376L18.8 377.5C37.7 379 75.3 382 112.8 379.2C150.3 376.3 187.7 367.7 225.2 370.8C262.7 374 300.3 389 337.8 400.5C375.3 412 412.7 420 450.2 419C487.7 418 525.3 408 562.8 407.5C600.3 407 637.7 416 675.2 416.3C712.7 416.7 750.3 408.3 787.8 407.3C825.3 406.3 862.7 412.7 881.3 415.8L900 419L900 601L881.3 601C862.7 601 825.3 601 787.8 601C750.3 601 712.7 601 675.2 601C637.7 601 600.3 601 562.8 601C525.3 601 487.7 601 450.2 601C412.7 601 375.3 601 337.8 601C300.3 601 262.7 601 225.2 601C187.7 601 150.3 601 112.8 601C75.3 601 37.7 601 18.8 601L0 601Z" fill="#fa7268"></path><path d="M0 470L18.8 460.7C37.7 451.3 75.3 432.7 112.8 428.8C150.3 425 187.7 436 225.2 435.3C262.7 434.7 300.3 422.3 337.8 426.3C375.3 430.3 412.7 450.7 450.2 456C487.7 461.3 525.3 451.7 562.8 443.8C600.3 436 637.7 430 675.2 425.7C712.7 421.3 750.3 418.7 787.8 417.5C825.3 416.3 862.7 416.7 881.3 416.8L900 417L900 601L881.3 601C862.7 601 825.3 601 787.8 601C750.3 601 712.7 601 675.2 601C637.7 601 600.3 601 562.8 601C525.3 601 487.7 601 450.2 601C412.7 601 375.3 601 337.8 601C300.3 601 262.7 601 225.2 601C187.7 601 150.3 601 112.8 601C75.3 601 37.7 601 18.8 601L0 601Z" fill="#ef5f67"></path><path d="M0 487L18.8 487.7C37.7 488.3 75.3 489.7 112.8 492C150.3 494.3 187.7 497.7 225.2 493.7C262.7 489.7 300.3 478.3 337.8 472.8C375.3 467.3 412.7 467.7 450.2 468.5C487.7 469.3 525.3 470.7 562.8 468.3C600.3 466 637.7 460 675.2 463.5C712.7 467 750.3 480 787.8 479.7C825.3 479.3 862.7 465.7 881.3 458.8L900 452L900 601L881.3 601C862.7 601 825.3 601 787.8 601C750.3 601 712.7 601 675.2 601C637.7 601 600.3 601 562.8 601C525.3 601 487.7 601 450.2 601C412.7 601 375.3 601 337.8 601C300.3 601 262.7 601 225.2 601C187.7 601 150.3 601 112.8 601C75.3 601 37.7 601 18.8 601L0 601Z" fill="#e34c67"></path><path d="M0 525L18.8 526.7C37.7 528.3 75.3 531.7 112.8 526.7C150.3 521.7 187.7 508.3 225.2 500.5C262.7 492.7 300.3 490.3 337.8 491.7C375.3 493 412.7 498 450.2 498.7C487.7 499.3 525.3 495.7 562.8 500.5C600.3 505.3 637.7 518.7 675.2 524.3C712.7 530 750.3 528 787.8 521.7C825.3 515.3 862.7 504.7 881.3 499.3L900 494L900 601L881.3 601C862.7 601 825.3 601 787.8 601C750.3 601 712.7 601 675.2 601C637.7 601 600.3 601 562.8 601C525.3 601 487.7 601 450.2 601C412.7 601 375.3 601 337.8 601C300.3 601 262.7 601 225.2 601C187.7 601 150.3 601 112.8 601C75.3 601 37.7 601 18.8 601L0 601Z" fill="#d53867"></path><path d="M0 561L18.8 555.8C37.7 550.7 75.3 540.3 112.8 540.8C150.3 541.3 187.7 552.7 225.2 556.7C262.7 560.7 300.3 557.3 337.8 552.2C375.3 547 412.7 540 450.2 538.2C487.7 536.3 525.3 539.7 562.8 545.3C600.3 551 637.7 559 675.2 557.5C712.7 556 750.3 545 787.8 544.7C825.3 544.3 862.7 554.7 881.3 559.8L900 565L900 601L881.3 601C862.7 601 825.3 601 787.8 601C750.3 601 712.7 601 675.2 601C637.7 601 600.3 601 562.8 601C525.3 601 487.7 601 450.2 601C412.7 601 375.3 601 337.8 601C300.3 601 262.7 601 225.2 601C187.7 601 150.3 601 112.8 601C75.3 601 37.7 601 18.8 601L0 601Z" fill="#c62368"></path></svg>