<svg id="visual" viewBox="0 0 960 540" width="960" height="540" xmlns="http://www.w3.org/2000/svg" xmlns:xlink="http://www.w3.org/1999/xlink" version="1.1"><path d="M0 207L16 209C32 211 64 215 96 223.5C128 232 160 245 192 249.7C224 254.3 256 250.7 288 238.7C320 226.7 352 206.3 384 202.2C416 198 448 210 480 207.7C512 205.3 544 188.7 576 185C608 181.3 640 190.7 672 194.8C704 199 736 198 768 194.5C800 191 832 185 864 182.3C896 179.7 928 180.3 944 180.7L960 181L960 0L944 0C928 0 896 0 864 0C832 0 800 0 768 0C736 0 704 0 672 0C640 0 608 0 576 0C544 0 512 0 480 0C448 0 416 0 384 0C352 0 320 0 288 0C256 0 224 0 192 0C160 0 128 0 96 0C64 0 32 0 16 0L0 0Z" fill="#0800ff"></path><path d="M0 145L16 150.2C32 155.3 64 165.7 96 171.2C128 176.7 160 177.3 192 182.5C224 187.7 256 197.3 288 199.5C320 201.7 352 196.3 384 196.5C416 196.7 448 202.3 480 197C512 191.7 544 175.3 576 167.7C608 160 640 161 672 162C704 163 736 164 768 169.3C800 174.7 832 184.3 864 184C896 183.7 928 173.3 944 168.2L960 163L960 0L944 0C928 0 896 0 864 0C832 0 800 0 768 0C736 0 704 0 672 0C640 0 608 0 576 0C544 0 512 0 480 0C448 0 416 0 384 0C352 0 320 0 288 0C256 0 224 0 192 0C160 0 128 0 96 0C64 0 32 0 16 0L0 0Z" fill="#0021d6"></path><path d="M0 138L16 138.2C32 138.3 64 138.7 96 138.3C128 138 160 137 192 140.8C224 144.7 256 153.3 288 156.5C320 159.7 352 157.3 384 151.5C416 145.7 448 136.3 480 127.8C512 119.3 544 111.7 576 115.3C608 119 640 134 672 143.7C704 153.3 736 157.7 768 154.8C800 152 832 142 864 135.3C896 128.7 928 125.3 944 123.7L960 122L960 0L944 0C928 0 896 0 864 0C832 0 800 0 768 0C736 0 704 0 672 0C640 0 608 0 576 0C544 0 512 0 480 0C448 0 416 0 384 0C352 0 320 0 288 0C256 0 224 0 192 0C160 0 128 0 96 0C64 0 32 0 16 0L0 0Z" fill="#0029ac"></path><path d="M0 99L16 100.7C32 102.3 64 105.7 96 107.8C128 110 160 111 192 106C224 101 256 90 288 88.5C320 87 352 95 384 100.2C416 105.3 448 107.7 480 107.7C512 107.7 544 105.3 576 104.2C608 103 640 103 672 101.7C704 100.3 736 97.7 768 92.5C800 87.3 832 79.7 864 81.5C896 83.3 928 94.7 944 100.3L960 106L960 0L944 0C928 0 896 0 864 0C832 0 800 0 768 0C736 0 704 0 672 0C640 0 608 0 576 0C544 0 512 0 480 0C448 0 416 0 384 0C352 0 320 0 288 0C256 0 224 0 192 0C160 0 128 0 96 0C64 0 32 0 16 0L0 0Z" fill="#002880"></path><path d="M0 55L16 56.5C32 58 64 61 96 59.2C128 57.3 160 50.7 192 46C224 41.3 256 38.7 288 37.2C320 35.7 352 35.3 384 37C416 38.7 448 42.3 480 47C512 51.7 544 57.3 576 59.8C608 62.3 640 61.7 672 63C704 64.3 736 67.7 768 64.5C800 61.3 832 51.7 864 47.8C896 44 928 46 944 47L960 48L960 0L944 0C928 0 896 0 864 0C832 0 800 0 768 0C736 0 704 0 672 0C640 0 608 0 576 0C544 0 512 0 480 0C448 0 416 0 384 0C352 0 320 0 288 0C256 0 224 0 192 0C160 0 128 0 96 0C64 0 32 0 16 0L0 0Z" fill="#052253"></path></svg>