<svg id="visual" viewBox="0 0 900 600" width="900" height="600" xmlns="http://www.w3.org/2000/svg" xmlns:xlink="http://www.w3.org/1999/xlink" version="1.1"><path d="M0 263L15 262.2C30 261.3 60 259.7 90 256.2C120 252.7 150 247.3 180 234.5C210 221.7 240 201.3 270 191.2C300 181 330 181 360 178.8C390 176.7 420 172.3 450 174C480 175.7 510 183.3 540 188.2C570 193 600 195 630 194.8C660 194.7 690 192.3 720 187.5C750 182.7 780 175.3 810 187.8C840 200.3 870 232.7 885 248.8L900 265L900 0L885 0C870 0 840 0 810 0C780 0 750 0 720 0C690 0 660 0 630 0C600 0 570 0 540 0C510 0 480 0 450 0C420 0 390 0 360 0C330 0 300 0 270 0C240 0 210 0 180 0C150 0 120 0 90 0C60 0 30 0 15 0L0 0Z" fill="#0066FF" stroke-linecap="round" stroke-linejoin="miter"></path></svg>