<svg id="visual" viewBox="0 0 960 540" width="960" height="540" xmlns="http://www.w3.org/2000/svg" xmlns:xlink="http://www.w3.org/1999/xlink" version="1.1"><path d="M0 186L16 196.2C32 206.3 64 226.7 96 231.2C128 235.7 160 224.3 192 220.7C224 217 256 221 288 226.3C320 231.7 352 238.3 384 231.5C416 224.7 448 204.3 480 194.2C512 184 544 184 576 188.3C608 192.7 640 201.3 672 201C704 200.7 736 191.3 768 194.5C800 197.7 832 213.3 864 219C896 224.7 928 220.3 944 218.2L960 216L960 0L944 0C928 0 896 0 864 0C832 0 800 0 768 0C736 0 704 0 672 0C640 0 608 0 576 0C544 0 512 0 480 0C448 0 416 0 384 0C352 0 320 0 288 0C256 0 224 0 192 0C160 0 128 0 96 0C64 0 32 0 16 0L0 0Z" fill="#4facf7"></path><path d="M0 181L16 176.5C32 172 64 163 96 162.8C128 162.7 160 171.3 192 179.8C224 188.3 256 196.7 288 196.7C320 196.7 352 188.3 384 184.7C416 181 448 182 480 182.2C512 182.3 544 181.7 576 181C608 180.3 640 179.7 672 178C704 176.3 736 173.7 768 178.7C800 183.7 832 196.3 864 201.5C896 206.7 928 204.3 944 203.2L960 202L960 0L944 0C928 0 896 0 864 0C832 0 800 0 768 0C736 0 704 0 672 0C640 0 608 0 576 0C544 0 512 0 480 0C448 0 416 0 384 0C352 0 320 0 288 0C256 0 224 0 192 0C160 0 128 0 96 0C64 0 32 0 16 0L0 0Z" fill="#2b9dfc"></path><path d="M0 153L16 150.7C32 148.3 64 143.7 96 139.8C128 136 160 133 192 134C224 135 256 140 288 135.7C320 131.3 352 117.7 384 120.3C416 123 448 142 480 145.8C512 149.7 544 138.3 576 133.8C608 129.3 640 131.7 672 130.7C704 129.7 736 125.3 768 127.3C800 129.3 832 137.7 864 136.8C896 136 928 126 944 121L960 116L960 0L944 0C928 0 896 0 864 0C832 0 800 0 768 0C736 0 704 0 672 0C640 0 608 0 576 0C544 0 512 0 480 0C448 0 416 0 384 0C352 0 320 0 288 0C256 0 224 0 192 0C160 0 128 0 96 0C64 0 32 0 16 0L0 0Z" fill="#008cff"></path><path d="M0 112L16 106.3C32 100.7 64 89.3 96 90.7C128 92 160 106 192 107.3C224 108.7 256 97.3 288 94.8C320 92.3 352 98.7 384 102.2C416 105.7 448 106.3 480 101.8C512 97.3 544 87.7 576 86.7C608 85.7 640 93.3 672 98.7C704 104 736 107 768 104.7C800 102.3 832 94.7 864 90C896 85.3 928 83.7 944 82.8L960 82L960 0L944 0C928 0 896 0 864 0C832 0 800 0 768 0C736 0 704 0 672 0C640 0 608 0 576 0C544 0 512 0 480 0C448 0 416 0 384 0C352 0 320 0 288 0C256 0 224 0 192 0C160 0 128 0 96 0C64 0 32 0 16 0L0 0Z" fill="#007aff"></path><path d="M0 45L16 46.5C32 48 64 51 96 54C128 57 160 60 192 60.2C224 60.3 256 57.7 288 56.3C320 55 352 55 384 56.5C416 58 448 61 480 59.5C512 58 544 52 576 51.5C608 51 640 56 672 55.2C704 54.3 736 47.7 768 43.5C800 39.3 832 37.7 864 39.5C896 41.3 928 46.7 944 49.3L960 52L960 0L944 0C928 0 896 0 864 0C832 0 800 0 768 0C736 0 704 0 672 0C640 0 608 0 576 0C544 0 512 0 480 0C448 0 416 0 384 0C352 0 320 0 288 0C256 0 224 0 192 0C160 0 128 0 96 0C64 0 32 0 16 0L0 0Z" fill="#0066ff"></path></svg>