<svg id="visual" viewBox="0 0 960 540" width="960" height="540" xmlns="http://www.w3.org/2000/svg" xmlns:xlink="http://www.w3.org/1999/xlink" version="1.1"><path d="M0 175L16 188.3C32 201.7 64 228.3 96 240.2C128 252 160 249 192 242.8C224 236.7 256 227.3 288 213.2C320 199 352 180 384 184.5C416 189 448 217 480 225.2C512 233.3 544 221.7 576 221.5C608 221.3 640 232.7 672 227.2C704 221.7 736 199.3 768 196.8C800 194.3 832 211.7 864 217.3C896 223 928 217 944 214L960 211L960 0L944 0C928 0 896 0 864 0C832 0 800 0 768 0C736 0 704 0 672 0C640 0 608 0 576 0C544 0 512 0 480 0C448 0 416 0 384 0C352 0 320 0 288 0C256 0 224 0 192 0C160 0 128 0 96 0C64 0 32 0 16 0L0 0Z" fill="#aa00ff"></path><path d="M0 142L16 138.8C32 135.7 64 129.3 96 133.7C128 138 160 153 192 166.3C224 179.7 256 191.3 288 190.7C320 190 352 177 384 166.3C416 155.7 448 147.3 480 147.8C512 148.3 544 157.7 576 165.3C608 173 640 179 672 170.5C704 162 736 139 768 137.8C800 136.7 832 157.3 864 166C896 174.7 928 171.3 944 169.7L960 168L960 0L944 0C928 0 896 0 864 0C832 0 800 0 768 0C736 0 704 0 672 0C640 0 608 0 576 0C544 0 512 0 480 0C448 0 416 0 384 0C352 0 320 0 288 0C256 0 224 0 192 0C160 0 128 0 96 0C64 0 32 0 16 0L0 0Z" fill="#7212bb"></path><path d="M0 79L16 84.7C32 90.3 64 101.7 96 106.8C128 112 160 111 192 107.7C224 104.3 256 98.7 288 98.7C320 98.7 352 104.3 384 112C416 119.7 448 129.3 480 128.8C512 128.3 544 117.7 576 114.7C608 111.7 640 116.3 672 120.7C704 125 736 129 768 124C800 119 832 105 864 98.2C896 91.3 928 91.7 944 91.8L960 92L960 0L944 0C928 0 896 0 864 0C832 0 800 0 768 0C736 0 704 0 672 0C640 0 608 0 576 0C544 0 512 0 480 0C448 0 416 0 384 0C352 0 320 0 288 0C256 0 224 0 192 0C160 0 128 0 96 0C64 0 32 0 16 0L0 0Z" fill="#420f79"></path><path d="M0 34L16 34.3C32 34.7 64 35.3 96 39.8C128 44.3 160 52.7 192 59.8C224 67 256 73 288 71.3C320 69.7 352 60.3 384 58C416 55.7 448 60.3 480 64.3C512 68.3 544 71.7 576 67.2C608 62.7 640 50.3 672 48.7C704 47 736 56 768 57.7C800 59.3 832 53.7 864 54.5C896 55.3 928 62.7 944 66.3L960 70L960 0L944 0C928 0 896 0 864 0C832 0 800 0 768 0C736 0 704 0 672 0C640 0 608 0 576 0C544 0 512 0 480 0C448 0 416 0 384 0C352 0 320 0 288 0C256 0 224 0 192 0C160 0 128 0 96 0C64 0 32 0 16 0L0 0Z" fill="#1b053b"></path></svg>