<svg id="visual" viewBox="0 0 960 540" width="960" height="540" xmlns="http://www.w3.org/2000/svg" xmlns:xlink="http://www.w3.org/1999/xlink" version="1.1"><path d="M0 249L16 239.7C32 230.3 64 211.7 96 204.3C128 197 160 201 192 206.7C224 212.3 256 219.7 288 213C320 206.3 352 185.7 384 190C416 194.3 448 223.7 480 232.3C512 241 544 229 576 225.8C608 222.7 640 228.3 672 227.5C704 226.7 736 219.3 768 215C800 210.7 832 209.3 864 214.5C896 219.7 928 231.3 944 237.2L960 243L960 0L944 0C928 0 896 0 864 0C832 0 800 0 768 0C736 0 704 0 672 0C640 0 608 0 576 0C544 0 512 0 480 0C448 0 416 0 384 0C352 0 320 0 288 0C256 0 224 0 192 0C160 0 128 0 96 0C64 0 32 0 16 0L0 0Z" fill="#0066ff"></path><path d="M0 170L16 165.5C32 161 64 152 96 150.5C128 149 160 155 192 152C224 149 256 137 288 136C320 135 352 145 384 153.2C416 161.3 448 167.7 480 171.2C512 174.7 544 175.3 576 173C608 170.7 640 165.3 672 169.3C704 173.3 736 186.7 768 180.8C800 175 832 150 864 140.2C896 130.3 928 135.7 944 138.3L960 141L960 0L944 0C928 0 896 0 864 0C832 0 800 0 768 0C736 0 704 0 672 0C640 0 608 0 576 0C544 0 512 0 480 0C448 0 416 0 384 0C352 0 320 0 288 0C256 0 224 0 192 0C160 0 128 0 96 0C64 0 32 0 16 0L0 0Z" fill="#3240b7"></path><path d="M0 117L16 116.2C32 115.3 64 113.7 96 117.5C128 121.3 160 130.7 192 129.3C224 128 256 116 288 108.7C320 101.3 352 98.7 384 98.3C416 98 448 100 480 100.7C512 101.3 544 100.7 576 104.3C608 108 640 116 672 120.3C704 124.7 736 125.3 768 120.8C800 116.3 832 106.7 864 105.3C896 104 928 111 944 114.5L960 118L960 0L944 0C928 0 896 0 864 0C832 0 800 0 768 0C736 0 704 0 672 0C640 0 608 0 576 0C544 0 512 0 480 0C448 0 416 0 384 0C352 0 320 0 288 0C256 0 224 0 192 0C160 0 128 0 96 0C64 0 32 0 16 0L0 0Z" fill="#2b1f75"></path><path d="M0 87L16 82.2C32 77.3 64 67.7 96 67.5C128 67.3 160 76.7 192 79.2C224 81.7 256 77.3 288 77.3C320 77.3 352 81.7 384 78C416 74.3 448 62.7 480 60.8C512 59 544 67 576 66.2C608 65.3 640 55.7 672 54.7C704 53.7 736 61.3 768 64.8C800 68.3 832 67.7 864 69.2C896 70.7 928 74.3 944 76.2L960 78L960 0L944 0C928 0 896 0 864 0C832 0 800 0 768 0C736 0 704 0 672 0C640 0 608 0 576 0C544 0 512 0 480 0C448 0 416 0 384 0C352 0 320 0 288 0C256 0 224 0 192 0C160 0 128 0 96 0C64 0 32 0 16 0L0 0Z" fill="#18013b"></path></svg>